<?xml version="1.0" encoding="utf-8"?>
<!-- Generator: Adobe Illustrator 26.0.2, SVG Export Plug-In . SVG Version: 6.00 Build 0)  -->
<svg version="1.1" id="Laag_1" xmlns="http://www.w3.org/2000/svg" xmlns:xlink="http://www.w3.org/1999/xlink" x="0px" y="0px"
	 viewBox="0 0 660.6 105.9" style="enable-background:new 0 0 660.6 105.9;" xml:space="preserve">
<style type="text/css">
	.st0{fill:#5E5B5C;}
	.st1{fill:#778DAE;}
</style>
<g>
	<path class="st0" d="M170.6,27.9l0.5,11.5h-1.4c-0.3-2-0.6-3.5-1.1-4.3c-0.7-1.4-1.7-2.4-3-3.1c-1.2-0.7-2.9-1-4.9-1h-6.9v37.4
		c0,3,0.3,4.9,1,5.6c0.9,1,2.3,1.5,4.2,1.5h1.7v1.3H140v-1.3h1.7c2.1,0,3.5-0.6,4.4-1.9c0.5-0.8,0.8-2.5,0.8-5.3V31h-5.9
		c-2.3,0-3.9,0.2-4.9,0.5c-1.3,0.5-2.3,1.3-3.2,2.6c-0.9,1.3-1.4,3.1-1.6,5.3H130l0.6-11.5H170.6z"/>
	<path class="st0" d="M195.9,65.8H183l-2.2,5.2c-0.6,1.3-0.8,2.2-0.8,2.9c0,0.5,0.2,0.9,0.7,1.3c0.5,0.4,1.5,0.6,3.1,0.7v0.9h-10.4
		V76c1.4-0.2,2.3-0.6,2.7-1c0.8-0.8,1.7-2.4,2.8-4.8L190.5,43h0.9l11.5,27.5c0.9,2.2,1.8,3.7,2.5,4.3s1.8,1,3.2,1.1v0.9h-13.1V76
		c1.3-0.1,2.2-0.3,2.7-0.7c0.5-0.4,0.7-0.8,0.7-1.4c0-0.7-0.3-1.8-1-3.4L195.9,65.8z M195.2,64l-5.6-13.4L183.8,64H195.2z"/>
	<path class="st0" d="M208.4,43.8h9l20.2,24.8V49.5c0-2-0.2-3.3-0.7-3.8c-0.6-0.7-1.6-1-2.9-1H233v-0.9h11.5v0.9h-1.2
		c-1.4,0-2.4,0.4-3,1.3c-0.4,0.5-0.5,1.7-0.5,3.6v27.9h-0.9l-21.8-26.7v20.4c0,2,0.2,3.3,0.7,3.8c0.6,0.7,1.6,1,2.9,1h1.2v0.9h-11.5
		V76h1.1c1.4,0,2.4-0.4,3-1.3c0.4-0.5,0.5-1.7,0.5-3.6v-23c-1-1.1-1.7-1.9-2.2-2.2c-0.5-0.4-1.2-0.7-2.2-1c-0.5-0.1-1.2-0.2-2.1-0.2
		V43.8z"/>
	<path class="st0" d="M246.1,76.9V76h1.2c1.4,0,2.4-0.4,3-1.3c0.4-0.5,0.5-1.7,0.5-3.6V49.6c0-2.1-0.2-3.4-0.7-3.9
		c-0.6-0.7-1.6-1.1-2.8-1.1h-1.2v-0.9h13.5c4.9,0,8.7,0.6,11.3,1.7c2.6,1.1,4.7,3,6.2,5.6c1.6,2.6,2.4,5.6,2.4,9.1
		c0,4.6-1.4,8.5-4.2,11.5c-3.1,3.5-7.9,5.2-14.4,5.2H246.1z M255.5,74.5c2.1,0.5,3.8,0.7,5.2,0.7c3.8,0,6.9-1.3,9.4-4
		c2.5-2.7,3.7-6.2,3.7-10.8c0-4.6-1.2-8.2-3.7-10.8s-5.7-4-9.6-4c-1.5,0-3.1,0.2-5,0.7V74.5z"/>
	<path class="st0" d="M304.2,65.8h-12.8l-2.2,5.2c-0.6,1.3-0.8,2.2-0.8,2.9c0,0.5,0.2,0.9,0.7,1.3c0.5,0.4,1.5,0.6,3.1,0.7v0.9
		h-10.4V76c1.4-0.2,2.3-0.6,2.7-1c0.8-0.8,1.7-2.4,2.8-4.8L298.8,43h0.9l11.5,27.5c0.9,2.2,1.8,3.7,2.5,4.3s1.8,1,3.2,1.1v0.9h-13.1
		V76c1.3-0.1,2.2-0.3,2.7-0.7c0.5-0.4,0.7-0.8,0.7-1.4c0-0.7-0.3-1.8-1-3.4L304.2,65.8z M303.5,64l-5.6-13.4L292.1,64H303.5z"/>
	<path class="st0" d="M351.2,76.9h-8.8l-11.2-15.5c-0.8,0-1.5,0-2,0c-0.2,0-0.4,0-0.7,0s-0.5,0-0.8,0V71c0,2.1,0.2,3.4,0.7,3.9
		c0.6,0.7,1.5,1.1,2.8,1.1h1.3v0.9h-14.2V76h1.2c1.4,0,2.4-0.5,3-1.4c0.3-0.5,0.5-1.7,0.5-3.6V49.6c0-2.1-0.2-3.4-0.7-3.9
		c-0.6-0.7-1.6-1.1-2.8-1.1h-1.2v-0.9h12.1c3.5,0,6.1,0.3,7.8,0.8c1.7,0.5,3.1,1.5,4.2,2.8c1.2,1.4,1.7,3,1.7,4.9c0,2-0.7,3.8-2,5.3
		c-1.3,1.5-3.4,2.6-6.2,3.2l6.8,9.5c1.6,2.2,2.9,3.6,4,4.3c1.1,0.7,2.6,1.2,4.4,1.4V76.9z M327.7,59.9c0.3,0,0.6,0,0.8,0
		c0.2,0,0.4,0,0.6,0c3.2,0,5.5-0.7,7.1-2.1c1.6-1.4,2.4-3.1,2.4-5.2c0-2.1-0.6-3.7-1.9-5s-3-1.9-5.1-1.9c-0.9,0-2.2,0.2-3.8,0.5
		V59.9z"/>
	<path class="st0" d="M376.7,43.8l0.4,7.8h-0.9c-0.2-1.4-0.4-2.3-0.7-2.9c-0.5-0.9-1.2-1.6-2-2.1c-0.8-0.4-1.9-0.7-3.3-0.7h-4.7
		v25.3c0,2,0.2,3.3,0.7,3.8c0.6,0.7,1.6,1,2.9,1h1.1v0.9h-14V76h1.2c1.4,0,2.4-0.4,3-1.3c0.4-0.5,0.5-1.7,0.5-3.6V45.9h-4
		c-1.5,0-2.6,0.1-3.3,0.3c-0.8,0.3-1.6,0.9-2.2,1.8c-0.6,0.9-1,2.1-1.1,3.6h-0.9l0.4-7.8H376.7z"/>
	<path class="st0" d="M401.2,43v11.5h-0.9c-0.3-2.2-0.8-3.9-1.6-5.2c-0.8-1.3-1.8-2.3-3.2-3.1c-1.4-0.8-2.8-1.1-4.3-1.1
		c-1.7,0-3.1,0.5-4.2,1.6c-1.1,1-1.7,2.2-1.7,3.5c0,1,0.3,1.9,1,2.8c1,1.2,3.4,2.8,7.2,4.9c3.1,1.7,5.2,2.9,6.3,3.8
		c1.1,0.9,2,1.9,2.6,3.1c0.6,1.2,0.9,2.5,0.9,3.8c0,2.5-1,4.7-2.9,6.5c-1.9,1.8-4.4,2.7-7.5,2.7c-1,0-1.9-0.1-2.7-0.2
		c-0.5-0.1-1.6-0.4-3.1-0.9s-2.6-0.8-3-0.8c-0.4,0-0.7,0.1-1,0.4c-0.2,0.2-0.4,0.7-0.5,1.5h-0.9V66.3h0.9c0.4,2.4,1,4.2,1.7,5.3
		c0.7,1.2,1.8,2.2,3.3,2.9c1.5,0.8,3.1,1.2,4.8,1.2c2,0,3.6-0.5,4.8-1.6c1.2-1.1,1.8-2.3,1.8-3.8c0-0.8-0.2-1.6-0.7-2.5
		c-0.4-0.8-1.1-1.6-2.1-2.3c-0.6-0.5-2.4-1.5-5.2-3.1s-4.8-2.9-6-3.8c-1.2-0.9-2.1-2-2.7-3.1c-0.6-1.1-0.9-2.4-0.9-3.8
		c0-2.4,0.9-4.4,2.7-6.1c1.8-1.7,4.1-2.6,7-2.6c1.8,0,3.6,0.4,5.6,1.3c0.9,0.4,1.6,0.6,1.9,0.6c0.4,0,0.8-0.1,1-0.4s0.5-0.8,0.6-1.5
		H401.2z"/>
	<path class="st0" d="M426,29.2v-1.3h21v1.3h-1.8c-2,0-3.5,0.6-4.4,1.8c-0.6,0.8-0.9,2.6-0.9,5.6v24c0,3.7-0.4,6.7-1.2,9
		c-0.8,2.3-2.2,4.3-4.2,6s-4.4,2.5-7.2,2.5c-2.3,0-4-0.6-5.3-1.7s-2-2.4-2-3.8c0-1.2,0.3-2.1,0.9-2.7c0.8-0.7,1.7-1.1,2.8-1.1
		c0.8,0,1.5,0.3,2.1,0.8s1.4,1.9,2.3,4c0.6,1.3,1.3,2,2.1,2c0.7,0,1.3-0.4,1.8-1.2c0.6-0.8,0.8-2.2,0.8-4.2V36.6
		c0-2.5-0.2-4.1-0.5-4.9c-0.2-0.6-0.7-1.1-1.5-1.6c-1-0.6-2.1-0.9-3.3-0.9H426z"/>
	<path class="st0" d="M465.7,43c4.3,0,8,1.6,11.2,4.9s4.7,7.3,4.7,12.2c0,5-1.6,9.2-4.8,12.5s-7,5-11.5,5c-4.6,0-8.4-1.6-11.5-4.9
		c-3.1-3.2-4.7-7.4-4.7-12.6c0-5.3,1.8-9.5,5.4-12.9C457.6,44.5,461.4,43,465.7,43z M465.2,44.8c-3,0-5.3,1.1-7.1,3.3
		c-2.2,2.7-3.3,6.7-3.3,12c0,5.4,1.2,9.6,3.5,12.5c1.8,2.2,4.1,3.3,7,3.3c3.1,0,5.7-1.2,7.7-3.6c2-2.4,3-6.2,3-11.5
		c0-5.7-1.1-9.9-3.3-12.7C470.9,45.9,468.4,44.8,465.2,44.8z"/>
	<path class="st0" d="M517.3,76.9h-8.8l-11.2-15.5c-0.8,0-1.5,0-2,0c-0.2,0-0.4,0-0.7,0s-0.5,0-0.8,0V71c0,2.1,0.2,3.4,0.7,3.9
		c0.6,0.7,1.5,1.1,2.8,1.1h1.3v0.9h-14.2V76h1.2c1.4,0,2.4-0.5,3-1.4c0.3-0.5,0.5-1.7,0.5-3.6V49.6c0-2.1-0.2-3.4-0.7-3.9
		c-0.6-0.7-1.6-1.1-2.8-1.1h-1.2v-0.9h12.1c3.5,0,6.1,0.3,7.8,0.8c1.7,0.5,3.1,1.5,4.2,2.8c1.2,1.4,1.7,3,1.7,4.9c0,2-0.7,3.8-2,5.3
		c-1.3,1.5-3.4,2.6-6.2,3.2l6.8,9.5c1.6,2.2,2.9,3.6,4,4.3c1.1,0.7,2.6,1.2,4.4,1.4V76.9z M493.8,59.9c0.3,0,0.6,0,0.8,0
		s0.4,0,0.6,0c3.2,0,5.5-0.7,7.1-2.1c1.6-1.4,2.4-3.1,2.4-5.2c0-2.1-0.6-3.7-1.9-5s-3-1.9-5.1-1.9c-0.9,0-2.2,0.2-3.8,0.5V59.9z"/>
	<path class="st0" d="M517.7,76.9V76h1.2c1.4,0,2.4-0.4,3-1.3c0.4-0.5,0.5-1.7,0.5-3.6V49.6c0-2.1-0.2-3.4-0.7-3.9
		c-0.6-0.7-1.6-1.1-2.8-1.1h-1.2v-0.9h13.5c4.9,0,8.7,0.6,11.3,1.7c2.6,1.1,4.7,3,6.2,5.6c1.6,2.6,2.4,5.6,2.4,9.1
		c0,4.6-1.4,8.5-4.2,11.5c-3.1,3.5-7.9,5.2-14.4,5.2H517.7z M527.2,74.5c2.1,0.5,3.8,0.7,5.2,0.7c3.8,0,6.9-1.3,9.4-4
		c2.5-2.7,3.7-6.2,3.7-10.8c0-4.6-1.2-8.2-3.7-10.8s-5.7-4-9.6-4c-1.5,0-3.1,0.2-5,0.7V74.5z"/>
	<path class="st0" d="M575.9,65.8H563l-2.2,5.2c-0.6,1.3-0.8,2.2-0.8,2.9c0,0.5,0.2,0.9,0.7,1.3c0.5,0.4,1.5,0.6,3.1,0.7v0.9h-10.4
		V76c1.4-0.2,2.3-0.6,2.7-1c0.8-0.8,1.8-2.4,2.8-4.8L570.5,43h0.9l11.5,27.5c0.9,2.2,1.8,3.7,2.5,4.3s1.8,1,3.2,1.1v0.9h-13.1V76
		c1.3-0.1,2.2-0.3,2.7-0.7c0.5-0.4,0.7-0.8,0.7-1.4c0-0.7-0.3-1.8-1-3.4L575.9,65.8z M575.2,64l-5.6-13.4L563.8,64H575.2z"/>
	<path class="st0" d="M612,65.8h-12.8l-2.2,5.2c-0.6,1.3-0.8,2.2-0.8,2.9c0,0.5,0.2,0.9,0.7,1.3c0.5,0.4,1.5,0.6,3.1,0.7v0.9h-10.4
		V76c1.4-0.2,2.3-0.6,2.7-1c0.8-0.8,1.8-2.4,2.8-4.8L606.6,43h0.9l11.5,27.5c0.9,2.2,1.8,3.7,2.5,4.3s1.8,1,3.2,1.1v0.9h-13.1V76
		c1.3-0.1,2.2-0.3,2.7-0.7c0.5-0.4,0.7-0.8,0.7-1.4c0-0.7-0.3-1.8-1-3.4L612,65.8z M611.3,64l-5.6-13.4L599.9,64H611.3z"/>
	<path class="st0" d="M624.5,43.8h9l20.2,24.8V49.5c0-2-0.2-3.3-0.7-3.8c-0.6-0.7-1.6-1-2.9-1h-1.1v-0.9h11.5v0.9h-1.2
		c-1.4,0-2.4,0.4-3,1.3c-0.4,0.5-0.5,1.7-0.5,3.6v27.9H655l-21.8-26.7v20.4c0,2,0.2,3.3,0.7,3.8c0.6,0.7,1.6,1,2.9,1h1.2v0.9h-11.5
		V76h1.1c1.4,0,2.4-0.4,3-1.3c0.4-0.5,0.5-1.7,0.5-3.6v-23c-1-1.1-1.7-1.9-2.2-2.2c-0.5-0.4-1.2-0.7-2.2-1c-0.5-0.1-1.2-0.2-2.1-0.2
		V43.8z"/>
</g>
<path class="st1" d="M45.9,0L0,26.5v52.9l45.9,26.5l45.9-26.5V26.5L45.9,0z M77.6,71.3L56.4,83.5V55H35.3v28.5L14.1,71.3V34.6
	L30,25.5l33.5,19.3l1.8-3.1l-15.9-9.2l12.3-7.1l15.9,9.2V71.3z"/>
<rect x="130.4" y="89.2" class="st0" width="526.6" height="2.6"/>
</svg>
