<svg width="330" height="105.9" xmlns="http://www.w3.org/2000/svg" xml:space="preserve" version="1.1">

 <g>
  <title>Layer 1</title>
  <path id="svg_17" fill="#778DAE" d="m45.9,0l-45.9,26.5l0,52.9l45.9,26.5l45.9,-26.5l0,-52.9l-45.9,-26.5zm31.7,71.3l-21.2,12.2l0,-28.5l-21.1,0l0,28.5l-21.2,-12.2l0,-36.7l15.9,-9.1l33.5,19.3l1.8,-3.1l-15.9,-9.2l12.3,-7.1l15.9,9.2l0,36.7z" class="st1"/>
  <rect stroke="null" id="svg_18" fill="#5e5b5c" height="3" width="207.59998" class="st0" y="91.2" x="110.4"/>
  <text transform="matrix(3.07175 0 0 3.16626 -403.608 -48.0466)" stroke="null" xml:space="preserve" text-anchor="start" font-family="Noto Sans JP" font-size="24" stroke-width="0" id="svg_35" y="40.06017" x="165.06153" fill="#5e5b5c">D</text>
  <text transform="matrix(1.79442 0 0 1.83204 -307.3 -28.4034)" stroke="null" xml:space="preserve" text-anchor="start" font-family="Noto Sans JP" font-size="24" id="svg_38" y="56.69033" x="257.18723" stroke-width="0" fill="#5e5b5c">ENTAEL</text>
 </g>
</svg>